<svg id="Layer_1" data-name="Layer 1" xmlns="http://www.w3.org/2000/svg" viewBox="0 0 512 512"><defs><style>.cls-1{fill:#389fe4;}.cls-2{fill:#fff;}.cls-3,.cls-4{fill:none;stroke:#389fe4;stroke-linecap:round;}.cls-3{stroke-linejoin:round;stroke-width:8px;}.cls-4{stroke-miterlimit:10;stroke-width:12px;}</style></defs><title>Alexa_mulesoft</title><path class="cls-1" d="M256.11,141c-38.31,0-74.44,7.39-101.71,20.82-28.76,14.16-44.6,33.53-44.6,54.54V318c0,21,15.84,40.38,44.6,54.54,27.28,13.42,63.4,20.82,101.71,20.82s74.44-7.4,101.72-20.82c28.76-14.16,44.6-33.53,44.6-54.54V216.35c0-21-15.84-40.38-44.6-54.54C330.55,148.38,294.42,141,256.11,141Zm0,137.58c-36.33,0-70.39-6.92-95.9-19.48C136.53,247.44,123,231.86,123,216.35s13.58-31.09,37.26-42.74c25.51-12.56,59.57-19.47,95.9-19.47s70.4,6.91,95.91,19.47c23.68,11.65,37.26,27.23,37.26,42.74S375.7,247.44,352,259.09c-25.51,12.56-59.57,19.48-95.91,19.48Zm0,101.66c-36.33,0-70.39-6.91-95.9-19.47C136.53,349.1,123,333.53,123,318V249.16l8.21,6.91a115.41,115.41,0,0,0,23.24,14.82c27.28,13.43,63.4,20.82,101.71,20.82s74.44-7.39,101.72-20.82a115.54,115.54,0,0,0,23.24-14.82l8.21-6.91V318c0,15.51-13.58,31.08-37.26,42.74-25.51,12.56-59.57,19.47-95.91,19.47Z"/><path class="cls-2" d="M357.83,270.89c-27.28,13.43-63.4,20.82-101.72,20.82s-74.43-7.39-101.71-20.82a115.41,115.41,0,0,1-23.24-14.82L123,249.16V318c0,15.51,13.58,31.08,37.26,42.74,25.51,12.56,59.57,19.47,95.9,19.47s70.4-6.91,95.91-19.47c23.68-11.66,37.26-27.23,37.26-42.74V249.16l-8.21,6.91A115.54,115.54,0,0,1,357.83,270.89Z"/><path class="cls-1" d="M258,225.44c11.82,0,21.43-5.3,21.43-11.81V198.74c0-6.51-9.61-11.81-21.43-11.81s-21.42,5.3-21.42,11.81v14.89C236.6,220.14,246.21,225.44,258,225.44Zm-12.31-26.7c0-3.74,5.52-6.79,12.31-6.79s12.32,3.05,12.32,6.79v14.89c0,3.74-5.53,6.79-12.32,6.79s-12.31-3-12.31-6.79Z"/><path class="cls-1" d="M288.39,203.67c-2.52,0-4.56,1.13-4.56,2.51v7.45c0,7.84-11.58,14.23-25.81,14.23s-25.8-6.39-25.8-14.23v-7.45c0-1.38-2.05-2.51-4.56-2.51s-4.55,1.13-4.55,2.51v7.45c0,9.67,13,17.74,30.36,19v8.47c0,1.38,2,2.51,4.55,2.51s4.56-1.13,4.56-2.51v-8.47c17.38-1.25,30.36-9.32,30.36-19v-7.45C292.94,204.8,290.9,203.67,288.39,203.67Z"/><path class="cls-1" d="M255.73,27.77a232.18,232.18,0,0,1,90.35,446A232.18,232.18,0,0,1,165.39,46a230.6,230.6,0,0,1,90.34-18.24m0-20C116.5,7.77,3.62,120.65,3.62,259.89S116.5,512,255.73,512,507.85,399.13,507.85,259.89,395,7.77,255.73,7.77Z"/><ellipse class="cls-3" cx="258.93" cy="215.6" rx="103.66" ry="46.29"/><path class="cls-4" d="M139.51,286.52c11.74,8.32,27.41,15.1,45.75,19.8"/></svg>